<svg width="24" height="24" viewBox="0 0 24 24" fill="none" xmlns="http://www.w3.org/2000/svg">
<path fill-rule="evenodd" clip-rule="evenodd" d="M6.144 3.63479C6.478 4.07463 6.3922 4.70196 5.95236 5.03596C4.89303 5.84038 4.00483 6.84806 3.33976 7.99999C3.06362 8.47828 2.45203 8.64216 1.97374 8.36602C1.49545 8.08987 1.33157 7.47828 1.60771 6.99999C2.4058 5.61767 3.47164 4.40846 4.74283 3.44315C5.18267 3.10915 5.80999 3.19495 6.144 3.63479ZM17.856 3.63479C18.19 3.19495 18.8174 3.10915 19.2572 3.44315C20.5284 4.40846 21.5942 5.61767 22.3923 6.99999C22.6685 7.47828 22.5046 8.08987 22.0263 8.36602C21.548 8.64216 20.9364 8.47828 20.6603 7.99999C19.9952 6.84806 19.107 5.84038 18.0477 5.03596C17.6078 4.70196 17.522 4.07463 17.856 3.63479ZM12 6.00002C8.13402 6.00002 5.00002 9.13403 5.00002 13C5.00002 16.866 8.13402 20 12 20C15.866 20 19 16.866 19 13C19 9.13403 15.866 6.00002 12 6.00002ZM3.00002 13C3.00002 8.02946 7.02945 4.00002 12 4.00002C16.9706 4.00002 21 8.02946 21 13C21 17.9706 16.9706 22 12 22C7.02945 22 3.00002 17.9706 3.00002 13ZM12 8.00002C12.5523 8.00002 13 8.44774 13 9.00002V12H16C16.5523 12 17 12.4477 17 13C17 13.5523 16.5523 14 16 14H12C11.4477 14 11 13.5523 11 13V9.00002C11 8.44774 11.4477 8.00002 12 8.00002Z" fill="#676565"/>
</svg>
