<svg width="24" height="24" viewBox="0 0 24 24" fill="none" xmlns="http://www.w3.org/2000/svg">
<path fill-rule="evenodd" clip-rule="evenodd" d="M7.19998 0.959961C7.73018 0.959961 8.15998 1.38977 8.15998 1.91996V2.87996H14.88V1.91996C14.88 1.38977 15.3098 0.959961 15.84 0.959961C16.3702 0.959961 16.8 1.38977 16.8 1.91996V2.90366C19.2256 3.14449 21.12 5.19099 21.12 7.67996V16.32C21.12 18.9709 18.9709 21.12 16.32 21.12H6.71998C4.06902 21.12 1.91998 18.9709 1.91998 16.32V7.67996C1.91998 5.19099 3.81439 3.14449 6.23998 2.90366V1.91996C6.23998 1.38977 6.66979 0.959961 7.19998 0.959961ZM4.00386 6.71996H19.0361C18.6407 5.60138 17.574 4.79996 16.32 4.79996H6.71998C5.46601 4.79996 4.39922 5.60138 4.00386 6.71996ZM19.2 8.63996H3.83998V16.32C3.83998 17.9105 5.1294 19.2 6.71998 19.2H16.32C17.9106 19.2 19.2 17.9105 19.2 16.32V8.63996ZM5.75998 11.52C5.75998 10.9898 6.18979 10.56 6.71998 10.56H10.56C11.0902 10.56 11.52 10.9898 11.52 11.52V15.36C11.52 15.8902 11.0902 16.32 10.56 16.32H6.71998C6.18979 16.32 5.75998 15.8902 5.75998 15.36V11.52ZM9.59998 12.48H7.67998V14.4H9.59998V12.48Z" fill="#676565"/>
</svg>
