<svg width="15" height="20" viewBox="0 0 15 20" fill="none" xmlns="http://www.w3.org/2000/svg">
<path d="M6.91956 0.206665C9.65245 0.0852962 12.1585 1.52464 13.483 3.92249C13.8364 4.56213 14.1176 5.39404 14.2604 6.23987C14.4028 7.08403 14.4107 7.96097 14.1979 8.68518C13.9921 9.3856 13.49 10.3665 13.1754 10.9879C11.9193 13.4692 10.4427 15.8174 8.84241 18.0836L8.84143 18.0856L8.25061 18.9069L8.24963 18.9078C8.18149 19.001 8.09361 19.1348 8.00647 19.2428C7.9135 19.358 7.79931 19.474 7.64709 19.5573L7.63831 19.5621L7.62854 19.567C7.43573 19.6471 7.25296 19.6591 7.08362 19.6129C6.9182 19.5678 6.78229 19.4711 6.67053 19.3629C6.55929 19.2552 6.46371 19.1275 6.38049 19.0074C6.29055 18.8776 6.22595 18.7751 6.151 18.6715C4.49759 16.3856 2.95011 14.0229 1.62659 11.5211C0.9299 10.2042 0.198359 8.89834 0.199829 7.3092C0.203304 3.79048 2.7987 0.702332 6.33362 0.267212C6.43236 0.255059 6.53146 0.246453 6.62561 0.237915C6.72086 0.229277 6.81201 0.220615 6.90198 0.208618L6.91956 0.206665ZM6.9469 1.92346C6.54158 1.96218 6.15532 2.01378 5.776 2.11975C3.35168 2.79729 1.68243 5.26688 1.92737 7.77307C1.97469 8.25603 2.17127 8.70071 2.3844 9.17834C3.49185 11.6609 5.05006 14.1166 6.60706 16.3522C6.83304 16.6766 7.04657 16.9984 7.276 17.3033C7.281 17.2964 7.28667 17.2898 7.29163 17.2828L7.29553 17.278L7.57288 16.903C8.21401 16.0215 8.80922 15.0926 9.39026 14.1666C10.2884 12.7354 11.1494 11.285 11.8844 9.77112C12.1844 9.15327 12.4087 8.71534 12.5387 8.25842C12.666 7.81122 12.7039 7.3412 12.61 6.67249C12.2058 3.79467 9.83902 1.79883 6.9469 1.92346Z" fill="#676565" stroke="#676565" stroke-width="0.4"/>
<path d="M7.05341 3.61572C8.9563 3.52619 10.6081 4.98295 10.696 6.90479C10.7765 8.66805 9.40481 10.2692 7.65302 10.4331L7.48212 10.4448C4.53888 10.5777 2.73751 7.22862 4.5661 4.96045C5.22628 4.14164 6.00687 3.72696 7.04755 3.61572L7.05341 3.61475V3.61572ZM7.12177 5.14404C5.29131 5.39967 4.75481 7.53402 6.15399 8.56787C6.52975 8.84548 6.97231 8.94007 7.44501 8.92529C8.12244 8.81803 8.57323 8.51189 8.83954 8.12451C9.10761 7.73429 9.1951 7.25231 9.12665 6.7876C8.98929 5.85528 8.2364 5.0234 7.12177 5.14404Z" fill="#676565" stroke="#676565" stroke-width="0.2"/>
</svg>
